<?xml version="1.0" encoding="UTF-8"?>
<svg width="88px" height="70px" viewBox="0 0 88 70" version="1.1" xmlns="http://www.w3.org/2000/svg" xmlns:xlink="http://www.w3.org/1999/xlink">
    <!-- Generator: Sketch 42 (36781) - http://www.bohemiancoding.com/sketch -->
    <title>Shape</title>
    <desc>Created with Sketch.</desc>
    <defs></defs>
    <g id="Page-1" stroke="none" stroke-width="1" fill="none" fill-rule="evenodd">
        <g id="noun_545834_cc" fill-rule="nonzero" fill="#FFFFFF">
            <path d="M65.574,69.982 C51.748,69.982 44.514,59.299 44.514,48.746 C44.514,38.364 52.677,27.625 66.338,27.625 C78.919,27.625 87.369,38.546 87.369,48.746 C87.37,59.185 79.217,69.982 65.574,69.982 Z M66.338,31.125 C54.868,31.125 48.014,40.084 48.014,48.746 C48.014,57.559 54.046,66.482 65.574,66.482 C77.026,66.482 83.869,57.464 83.869,48.746 C83.87,40.412 76.67,31.125 66.338,31.125 Z M59.576,62.353 C59.274,62.353 58.972,62.275 58.701,62.119 C58.159,61.806 57.826,61.228 57.826,60.603 L57.826,37.64 C57.826,37.015 58.159,36.437 58.701,36.124 C59.242,35.811 59.91,35.811 60.451,36.124 L80.337,47.605 C80.879,47.918 81.212,48.496 81.212,49.121 C81.212,49.746 80.879,50.324 80.337,50.637 L60.451,62.118 C60.181,62.274 59.878,62.353 59.576,62.353 Z M61.326,40.671 L61.326,57.571 L75.962,49.121 L61.326,40.671 Z M41.479,58.118 L7.028,58.118 C4.002,58.118 0.63,55.744 0.63,52.339 L0.63,18.659 C0.63,15.497 3.679,12.618 7.028,12.618 L8.26,12.618 C9.56,12.618 10.617,11.571 10.617,10.283 C10.617,10.228 10.619,10.173 10.625,10.117 L11.028,5.868 C11.069,2.526 13.396,0.017 16.474,0.017 L31.885,0.017 C34.841,0.017 38.116,1.922 39.503,4.449 L42.545,10.083 C43.283,11.428 45.409,12.617 47.088,12.617 L78.906,12.617 C81.97,12.617 84.281,15.214 84.281,18.658 L84.281,28.992 C84.281,29.958 83.497,30.742 82.531,30.742 C81.565,30.742 80.781,29.958 80.781,28.992 L80.781,18.659 C80.781,17.638 80.282,16.118 78.906,16.118 L47.088,16.118 C44.11,16.118 40.835,14.243 39.471,11.757 L36.429,6.123 C35.67,4.74 33.544,3.518 31.886,3.518 L16.475,3.518 C15.138,3.518 14.528,4.782 14.528,5.957 C14.528,6.012 14.526,6.067 14.52,6.123 L14.117,10.374 C14.068,13.55 11.46,16.119 8.26,16.119 L7.028,16.119 C5.647,16.119 4.13,17.449 4.13,18.66 L4.13,52.34 C4.13,53.568 5.723,54.619 7.028,54.619 L41.479,54.619 C42.445,54.619 43.229,55.403 43.229,56.369 C43.229,57.335 42.445,58.118 41.479,58.118 Z" id="Shape"></path>
        </g>
    </g>
</svg>
