<?xml version="1.0" encoding="UTF-8"?>
<svg width="324px" height="171px" viewBox="0 0 324 171" version="1.1" xmlns="http://www.w3.org/2000/svg" xmlns:xlink="http://www.w3.org/1999/xlink">
    <!-- Generator: Sketch 42 (36781) - http://www.bohemiancoding.com/sketch -->
    <title>optimised (1)</title>
    <desc>Created with Sketch.</desc>
    <defs></defs>
    <g id="Page-1" stroke="none" stroke-width="1" fill="none" fill-rule="evenodd">
        <g id="optimised-(1)" fill-rule="nonzero" fill="#FFFFFF">
            <path d="M60.59,130.719 C59.897,130.719 57.537,131.412 55.455,134.465 C53.374,137.518 43.937,153.061 42.272,155.975 C40.467,158.889 41.023,160.139 42.965,160.139 L47.128,160.139 C49.071,160.139 50.875,157.918 51.569,156.391 C52.541,155.004 63.642,136.963 65.446,134.328 C66.972,131.69 66.002,130.721 64.752,130.721 C63.644,130.719 60.59,130.719 60.59,130.719 L60.59,130.719 Z" id="Shape"></path>
            <path d="M22.705,160.139 C29.783,159.862 34.501,159.582 40.052,149.453 C42.411,144.873 35.75,144.733 35.75,144.733 C34.778,144.733 41.856,144.873 45.603,136.962 C49.073,129.745 42.966,130.302 41.857,130.163 C36.583,129.468 26.73,129.745 19.237,130.163 C17.71,130.163 15.906,132.243 14.934,133.493 C14.241,134.88 2.722,153.474 1.057,156.112 C-0.748,158.886 1.057,159.999 2.861,160.136 C8.134,160.416 14.795,160.416 22.705,160.139 L22.705,160.139 L22.705,160.139 Z M28.811,150.424 C26.869,154.449 23.26,154.588 21.179,154.588 L15.628,154.588 C14.934,154.588 14.24,154.588 14.934,153.061 C15.906,151.813 17.293,149.592 17.849,148.758 C18.404,147.787 18.958,147.51 20.207,147.51 L26.175,147.51 C27.285,147.51 30.199,147.371 28.811,150.424 L28.811,150.424 L28.811,150.424 Z M33.945,138.49 C32.003,142.512 28.256,142.512 26.313,142.512 L22.983,142.512 C22.427,142.512 21.456,142.512 22.427,141.264 C23.399,139.875 24.508,137.516 25.202,136.684 C25.895,135.852 26.451,135.434 27.423,135.434 L31.447,135.434 C32.558,135.436 35.473,135.436 33.945,138.49 L33.945,138.49 Z" id="Shape"></path>
            <path d="M253.762,141.82 L244.604,156.39 C242.662,159.443 244.328,160.138 245.297,160.138 L249.322,160.138 C250.847,160.138 251.959,159.999 254.318,156.39 L263.476,141.542 C265.974,137.517 262.92,137.796 260.978,137.796 C257.51,137.934 256.678,137.797 253.762,141.82 L253.762,141.82 Z" id="Shape"></path>
            <path d="M291.51,142.791 L280.545,142.791 C279.436,142.791 277.908,143.764 277.076,144.873 C276.383,145.983 276.799,147.094 277.908,147.094 C277.908,146.955 282.348,147.094 285.679,147.094 C289.149,146.955 290.399,149.315 286.653,154.449 C285.958,155.557 284.431,157.363 283.181,158.055 C283.181,158.055 280.128,160.553 270.276,160.553 C261.255,160.553 260.839,159.58 260.839,159.58 C260.007,158.887 259.731,157.639 260.007,156.942 C260.423,156.387 261.813,155.834 262.921,155.834 L274.3,155.834 C275.409,155.834 276.937,154.863 277.63,153.613 C278.464,152.504 278.046,151.117 276.937,151.117 L268.473,151.117 C264.449,151.117 265.003,148.477 268.057,144.039 C268.889,142.789 270.415,141.264 271.526,140.43 C271.526,140.43 274.856,137.932 284.571,137.932 C288.458,137.932 294.978,137.516 294.563,140.848 C294.424,142.375 292.203,142.791 291.51,142.791 L291.51,142.791 Z" id="Shape"></path>
            <path d="M320.234,142.93 L311.352,142.93 C310.242,142.93 308.715,143.903 308.023,145.289 L302.75,153.477 C302.055,154.588 302.473,155.836 303.305,155.836 L313.852,155.836 C315.377,155.836 316.35,155.975 316.211,156.391 C316.072,157.918 313.852,160.555 301.5,160.555 C290.398,160.555 291.092,159.028 291.23,157.365 C291.508,155.559 296.918,146.957 298.584,144.319 C300.25,141.545 302.609,137.934 313.572,137.934 C323.842,137.934 323.285,140.293 323.146,140.85 C323.148,141.404 322.594,142.93 320.234,142.93 L320.234,142.93 Z" id="Shape"></path>
            <path d="M268.75,129.469 C269.582,129.469 270.555,130.303 269.859,131.69 C269.027,132.801 268.75,133.356 268.334,134.188 C267.779,135.02 266.529,135.436 265.004,135.436 L259.315,135.436 C258.205,135.436 258.205,134.465 258.758,133.496 C259.174,132.664 259.451,132.246 259.869,131.69 C260.285,130.998 260.978,129.469 263.199,129.469 L268.75,129.469 L268.75,129.469 Z" id="Shape"></path>
            <path d="M102.777,145.428 C100.696,145.428 99.863,146.817 99.447,147.51 C99.169,148.065 98.753,148.481 98.198,149.453 C97.781,150.424 97.92,151.393 98.475,151.393 L104.442,151.393 C106.247,151.393 107.217,150.838 107.772,150.006 C108.328,149.035 108.466,148.756 109.299,147.369 C110.27,145.981 109.021,145.426 108.327,145.426 L102.777,145.428 L102.777,145.428 Z" id="Shape"></path>
            <path d="M240.719,151.119 C244.326,145.289 242.106,148.897 247.24,140.711 C252.236,132.383 244.326,130.719 236.554,130.719 C224.619,130.719 221.01,131.274 221.01,131.274 C219.763,131.274 218.097,132.383 217.404,133.772 L202.97,157.086 C202.138,158.473 202.414,159.582 203.527,159.86 C203.527,159.86 206.996,160.137 218.929,160.137 C235.307,160.139 236.832,157.086 240.719,151.119 L240.719,151.119 L240.719,151.119 Z M235.861,140.711 C235.861,140.711 229.617,150.563 229.199,151.119 C228.644,151.951 226.701,154.588 223.787,154.588 L217.682,154.588 C216.571,154.588 216.016,154.449 216.711,153.338 L226.701,137.379 C227.119,136.824 227.812,136.408 228.644,136.408 L234.611,136.408 C236.555,136.408 237.109,138.49 235.861,140.711 L235.861,140.711 Z" id="Shape"></path>
            <path d="M145.103,146.539 C141.634,146.539 140.524,146.815 137.471,146.955 C136.222,146.955 134.557,147.926 133.863,149.313 L130.949,154.309 C127.341,159.998 135.112,160.414 141.218,160.414 C151.072,160.414 155.789,157.639 155.789,157.639 C157.038,157.084 158.565,155.557 159.259,154.309 L165.643,143.901 C166.337,142.791 166.616,140.848 165.919,139.738 C165.919,139.738 165.087,137.797 155.234,137.797 C145.52,137.797 141.634,139.322 141.634,139.322 C140.524,139.877 139.136,140.848 138.719,141.404 C138.443,142.235 138.997,142.791 140.108,142.791 L154.54,142.791 C155.651,142.791 156.067,143.764 155.512,144.733 C154.263,146.399 152.182,146.539 152.182,146.539 L145.103,146.539 L145.103,146.539 Z M150.654,153.338 L150.654,153.477 C149.682,154.867 147.739,156.115 146.63,156.115 L143.716,156.115 L141.079,156.115 C139.969,156.115 139.552,154.867 140.523,153.477 L140.523,153.338 C141.495,151.813 143.437,150.563 144.547,150.563 L150.098,150.563 C151.209,150.563 151.625,151.813 150.654,153.338 L150.654,153.338 Z" id="Shape"></path>
            <path d="M125.953,144.873 C126.924,143.485 128.45,142.514 129.56,142.514 L134,142.514 C134.694,142.514 136.914,142.375 137.054,140.99 C137.193,138.768 132.474,138.215 130.67,138.215 C124.148,138.215 120.539,138.492 116.792,144.043 C113.878,148.481 110.964,153.063 109.021,156.393 C107.356,159.447 108.883,160.141 109.854,160.141 L113.878,160.141 C115.404,160.141 116.515,160.002 118.874,156.393 L125.953,144.873 L125.953,144.873 Z" id="Shape"></path>
            <path d="M96.949,141.959 L90.704,152.367 C89.871,153.475 90.704,154.031 91.397,154.031 L93.618,154.031 C94.312,154.031 95.283,154.865 94.45,156.113 C93.757,157.502 93.618,158.055 92.925,158.887 C92.369,159.86 91.398,160.137 89.733,160.137 L87.096,160.137 C85.292,160.137 86.263,157.5 86.263,157.5 C83.627,160.414 77.521,160.414 71.137,160.414 C65.032,160.414 57.121,160.414 60.73,154.309 L68.501,141.819 C69.75,139.737 70.721,138.906 71.97,138.35 C71.97,138.35 72.247,137.932 75.577,137.932 C77.798,137.932 80.712,137.932 78.215,141.819 L71.137,153.338 C70.305,154.449 70.721,155.559 71.97,155.559 L76.826,155.559 C78.075,155.559 79.602,154.451 80.573,153.338 C80.573,153.338 84.181,147.094 87.374,141.959 C88.206,140.711 90.288,137.934 92.369,137.934 L95.839,137.934 C97.366,137.934 99.169,138.352 96.949,141.959 L96.949,141.959 Z" id="Shape"></path>
            <path d="M160.091,165.967 L171.61,165.967 L173.969,166.106 C175.217,166.106 176.744,164.998 177.438,163.608 L179.797,160.139 C178.27,160.416 176.744,160.416 174.94,160.416 C169.112,160.416 161.064,160.416 164.67,154.311 L172.164,142.238 C173.135,140.85 174.662,139.324 175.633,138.768 C175.633,138.492 176.188,138.352 179.381,138.352 C181.461,138.352 184.793,137.797 181.877,142.238 L175.217,153.34 C174.385,154.451 174.662,155.561 175.772,155.561 L180.492,155.561 C181.463,155.561 183.266,154.453 183.961,153.34 L190.899,142.237 C191.592,140.85 193.258,139.324 194.369,138.768 C194.369,138.768 194.926,138.352 198.114,138.352 C199.92,138.352 203.528,137.797 200.614,142.237 L194.785,151.537 C194.508,151.953 194.369,152.092 194.092,152.785 L186.738,164.719 C185.906,165.969 184.379,167.496 183.269,168.19 C183.269,168.19 178.412,170.965 168.699,170.965 L167.31,170.965 C158.289,170.688 158.706,170.131 158.151,169.715 C157.595,169.576 157.04,168.744 157.178,167.633 C157.315,166.66 158.564,165.967 160.091,165.967 L160.091,165.967 Z" id="Shape"></path>
            <path d="M68.501,10.401 C68.223,10.401 68.223,10.542 68.084,10.679 C56.011,27.609 48.934,38.85 41.439,52.727 L40.607,54.253 L40.467,54.809 C39.774,56.198 39.912,57.723 40.884,58.972 C45.324,65.91 70.165,74.098 125.535,74.098 C166.889,74.098 210.88,67.437 210.88,54.949 C210.88,43.152 167.583,36.076 125.535,36.076 C111.518,36.076 97.78,37.88 93.894,38.574 C97.641,32.745 113.461,11.511 113.461,11.374 C113.738,11.097 113.738,11.097 113.738,10.958 L113.738,10.681 C113.461,10.542 113.322,10.403 113.045,10.403 L68.501,10.401 L68.501,10.401 Z M84.598,54.948 C84.598,52.45 100.28,48.842 125.536,48.842 C150.792,48.842 166.336,52.45 166.336,54.948 C166.336,57.722 150.793,61.192 125.536,61.192 C100.279,61.193 84.598,57.724 84.598,54.948 L84.598,54.948 Z" id="Shape"></path>
            <path d="M99.863,117.258 C106.94,117.397 306.08,124.334 310.522,53.699 C314.128,-4.726 167.584,0.826 167.584,0.826 C167.308,0.826 166.336,0.826 166.336,1.519 C166.336,2.352 166.752,2.492 167.308,2.492 C207.967,2.492 274.025,18.727 271.943,53.699 C270.277,82.009 218.654,115.313 99.864,115.313 C99.309,115.313 98.754,115.869 98.754,116.285 C98.753,116.703 99.169,117.119 99.863,117.258 L99.863,117.258 Z" id="Shape"></path>
            <polygon id="Shape" points="282.488 112.123 278.604 112.123 278.604 111.291 287.484 111.291 287.484 112.123 283.877 112.123 283.877 119.061 282.488 119.061"></polygon>
            <polygon id="Shape" points="289.428 111.291 291.092 111.291 294.008 117.813 297.061 111.291 298.725 111.291 298.725 119.061 297.615 119.061 297.615 112.678 297.477 112.678 294.563 119.061 293.451 119.061 290.537 112.678 290.537 119.061 289.428 119.061"></polygon>
        </g>
    </g>
</svg>
