<?xml version="1.0" encoding="UTF-8"?>
<svg width="86px" height="86px" viewBox="0 0 86 86" version="1.1" xmlns="http://www.w3.org/2000/svg" xmlns:xlink="http://www.w3.org/1999/xlink">
    <!-- Generator: Sketch 42 (36781) - http://www.bohemiancoding.com/sketch -->
    <title>Group</title>
    <desc>Created with Sketch.</desc>
    <defs></defs>
    <g id="Page-1" stroke="none" stroke-width="1" fill="none" fill-rule="evenodd">
        <g id="noun_727767_cc" transform="translate(-7.000000, -1.000000)" fill-rule="nonzero" fill="#FFFFFF">
            <g id="Group" transform="translate(7.000000, 0.637820)">
                <path d="M43,0.36217 C19.2874,0.36217 0,19.64945 0,43.3622 C0,67.0749 19.2874,86.3622 43,86.3622 C66.7128,86.3622 86,67.0749 86,43.3622 C86,19.64947 66.7128,0.36217 43,0.36217 Z M43,6.36217 C63.4702,6.36217 80,22.89209 80,43.3622 C80,63.8323 63.4702,80.3622 43,80.3622 C22.53,80.3622 6,63.8322 6,43.3622 C6,22.89211 22.53,6.36217 43,6.36217 Z M43,15.36217 C34.6304,15.36217 27.7915,20.81377 26.0938,27.61217 C25.7826879,28.6672843 26.0738411,29.808077 26.8525181,30.5849697 C27.6311951,31.3618625 28.7725217,31.6502672 29.8267091,31.3365256 C30.8808966,31.0227839 31.6788877,30.1572099 31.9062,29.08092 C32.818,25.43042 37.3559,21.36217 43,21.36217 C45.7804,21.36217 48.6925,22.38317 50.75,24.04967 C52.8076,25.71617 54,27.86217 54,30.36217 C54,33.64547 53.3312,35.11932 52.4375,36.26842 C51.5439,37.41762 50.1152,38.31102 48.25,39.64342 C46.3848,40.97592 44.1693,42.8156 42.5625,45.7997 C40.956,48.7838 40,52.7789 40,58.3622 C40.0000001,60.0193089 41.3431458,61.3626611 43,61.3626611 C44.6568542,61.3626611 45.9999999,60.0193089 46,58.3622 C46,53.4455 46.8257,50.5345 47.8438,48.6434 C48.8618,46.7526 50.1157,45.7172 51.75,44.5497 C53.3842,43.3822 55.4566,42.1817 57.1875,39.95592 C58.9185,37.73012 60,34.57887 60,30.36217 C60,25.86217 57.6896,21.97702 54.5,19.39342 C51.3102,16.80992 47.2105,15.36217 43,15.36217 L43,15.36217 Z M43.031,63.3622 C40.8201,63.3622 38.9998,65.1531 38.9998,67.3622 C38.9998,69.5713 40.8202,71.3622 43.031,71.3622 C45.2418,71.3622 47.031,69.5713 47.031,67.3622 C47.031,65.1531 45.2417,63.3622 43.031,63.3622 Z" id="Shape"></path>
            </g>
        </g>
    </g>
</svg>
