<?xml version="1.0" encoding="UTF-8"?>
<svg width="196px" height="114px" viewBox="0 0 196 114" version="1.1" xmlns="http://www.w3.org/2000/svg" xmlns:xlink="http://www.w3.org/1999/xlink">
    <!-- Generator: Sketch 42 (36781) - http://www.bohemiancoding.com/sketch -->
    <title>Shape</title>
    <desc>Created with Sketch.</desc>
    <defs></defs>
    <g id="Page-1" stroke="none" stroke-width="1" fill="none" fill-rule="evenodd">
        <path d="M26.594,110.801 C25.893,109.521 23.647,105.416 21.602,101.679 L17.884,94.885 L18.802,94.869 C19.307,94.86 20.578,94.875 21.625,94.902 L23.529,94.952 L26.505,100.793 C28.141,104.005 29.502,106.633 29.529,106.633 C29.556,106.633 30.899,103.998 32.514,100.777 L35.451,94.921 L38.112,94.92 C39.575,94.919 40.773,94.931 40.773,94.945 C40.773,94.96 38.517,99.049 35.761,104.032 L30.75,113.092 L29.309,113.11 L27.867,113.128 L26.594,110.801 Z M144.794,113.083 C144.702,113.07 144.356,113.027 144.025,112.986 C141.376,112.666 138.746,111.62 136.834,110.127 C135.044,108.729 133.895,106.99 133.513,105.101 C133.34,104.247 133.402,102.725 133.644,101.914 C134.052,100.541 134.796,99.366 135.989,98.21 C137.897,96.362 140.629,95.11 143.857,94.606 C144.949,94.435 147.847,94.434 148.945,94.605 C155.441,95.612 159.839,99.746 159.386,104.42 C159.298,105.327 159.101,106.019 158.687,106.871 C157.103,110.127 153.214,112.474 148.484,113.027 C147.728,113.116 145.276,113.153 144.794,113.083 Z M147.874,109.537 C149.502,109.273 151.097,108.516 152.199,107.486 C153.229,106.522 153.792,105.478 153.971,104.203 C154.321,101.701 152.383,99.183 149.324,98.166 C148.128,97.768 147.654,97.697 146.2,97.697 C145.077,97.697 144.798,97.718 144.197,97.853 C142.524,98.227 141.234,98.891 140.152,99.934 C138.939,101.102 138.375,102.424 138.452,103.916 C138.603,106.839 141.469,109.238 145.296,109.645 C145.967,109.716 147.045,109.671 147.874,109.537 Z M73.656,112.607 L69.824,112.589 L69.824,103.712 L69.824,94.835 L74.66,94.881 C79.815,94.93 80.294,94.957 81.893,95.294 C83.421,95.616 84.63,96.028 85.889,96.656 C87.224,97.322 88.15,97.987 89.073,98.944 C90.613,100.541 91.325,102.295 91.225,104.243 C91.136,105.968 90.45,107.385 89.011,108.812 C87.24,110.569 84.697,111.777 81.338,112.454 C80.381,112.647 80.261,112.657 78.91,112.641 C78.128,112.632 75.764,112.617 73.656,112.607 Z M81.103,109.32 C82.439,108.87 83.304,108.354 84.148,107.503 C84.783,106.863 85.168,106.247 85.466,105.395 C85.638,104.901 85.653,104.781 85.653,103.855 C85.653,102.894 85.644,102.824 85.436,102.225 C85.14,101.375 84.764,100.758 84.157,100.122 C83.324,99.25 82.391,98.672 81.228,98.309 C80.15,97.972 79.744,97.934 77.07,97.915 L74.576,97.897 L74.576,103.741 L74.576,109.583 L77.505,109.564 L80.433,109.545 L81.103,109.32 Z M52.286,103.755 L52.286,94.919 L54.696,94.919 L57.106,94.919 L57.106,103.755 L57.106,112.59 L54.696,112.59 L52.286,112.59 L52.286,103.755 Z M103.025,103.755 L103.025,94.919 L112.363,94.919 L121.701,94.919 L121.701,96.391 L121.701,97.863 L115.459,97.88 L109.217,97.897 L109.199,99.855 L109.181,101.813 L115.106,101.813 L121.031,101.813 L121.031,103.286 L121.031,104.758 L115.124,104.775 L109.217,104.792 L109.217,107.202 L109.217,109.612 L115.459,109.629 L121.701,109.646 L121.701,111.118 L121.701,112.59 L112.363,112.59 L103.025,112.59 L103.025,103.755 Z M82.877,87.046 C78.185,86.951 74.745,86.866 72.2,86.783 C34.838,85.555 6.46,81.162 1.144,75.782 C0.471,75.101 0.26,74.698 0.221,74.017 C0.192,73.517 0.202,73.469 0.444,72.98 C2.902,68.008 25.01,63.645 57.507,61.72 C67.357,61.136 81.018,60.717 90.264,60.714 C91.674,60.713 92.055,60.695 92.03,60.63 C92.013,60.584 88.167,50.064 83.483,37.252 C78.799,24.44 74.949,13.942 74.928,13.924 C74.907,13.905 74.912,13.95 74.94,14.024 C75.077,14.39 75.655,16.818 75.808,17.672 C76.862,23.556 75.979,28.609 73.141,32.934 C71.702,35.126 69.539,37.3 67.012,39.093 C60.723,43.555 50.94,46.697 38.363,48.293 C34.092,48.834 30.008,49.167 24.574,49.415 C20.723,49.591 7.099,49.489 5.893,49.276 L5.653,49.233 L9.608,32.449 L13.562,15.664 L23.253,15.664 L32.943,15.664 L32.905,15.815 C32.884,15.897 31.581,21.071 30.008,27.311 L27.149,38.657 L27.351,38.681 C27.462,38.695 29.239,38.67 31.301,38.627 C34.669,38.557 35.168,38.532 36.214,38.383 C40.62,37.757 44.572,36.45 47.718,34.58 C51.982,32.045 54.699,28.614 55.542,24.701 C55.714,23.902 55.718,21.759 55.548,20.975 C54.482,16.035 50.003,12.79 43.277,12.083 C42.453,11.997 40.007,11.964 28.572,11.885 C21.028,11.834 14.844,11.781 14.831,11.768 C14.818,11.755 15.359,9.305 16.032,6.324 L17.256,0.904 L53.263,0.888 L89.269,0.872 L94.084,16.633 C96.732,25.302 98.915,32.42 98.937,32.452 C98.958,32.483 104.623,25.436 111.526,16.791 L124.077,1.074 L147.305,1.092 L170.532,1.109 L171.57,1.261 C176.558,1.993 180.107,3.028 183.578,4.766 C184.871,5.413 185.435,5.737 186.542,6.467 C192.658,10.5 196.013,16.503 195.779,22.994 C195.529,29.926 191.377,36.429 184.154,41.202 C183.473,41.653 182.585,42.21 182.18,42.442 C176.184,45.877 168.799,48.077 160.19,48.993 C157.527,49.277 157.536,49.276 141.409,49.255 L125.874,49.233 L129.828,32.449 L133.783,15.664 L143.372,15.664 C148.646,15.664 152.961,15.681 152.961,15.701 C152.961,15.721 151.741,20.862 150.25,27.125 C148.758,33.388 147.546,38.52 147.556,38.53 C147.566,38.54 149.758,38.505 152.426,38.454 C157.902,38.347 157.875,38.35 160.431,37.72 C166.684,36.179 171.554,33.132 174.273,29.059 C175.138,27.763 175.88,25.969 176.16,24.5 C176.339,23.558 176.326,21.943 176.133,21.04 C175.755,19.275 174.995,17.817 173.777,16.515 C171.541,14.126 168.292,12.671 163.635,11.972 L162.633,11.822 L149.108,11.8 L135.582,11.778 L113.853,36.229 L92.124,60.68 L96.955,60.725 C110.171,60.848 121.207,61.235 131.942,61.953 C157.191,63.642 175.74,66.823 182.681,70.655 C183.959,71.361 184.946,72.236 185.322,72.998 C185.487,73.332 185.52,73.482 185.522,73.903 C185.524,74.343 185.496,74.467 185.303,74.859 C182.691,80.165 157.675,84.741 121.935,86.45 C118.068,86.635 114.227,86.772 107.61,86.96 C105.378,87.024 85.242,87.093 82.877,87.046 Z M95.628,79.256 C101.817,79.003 107.013,78.35 111.158,77.304 C113.464,76.723 115.728,75.842 116.821,75.101 C118.012,74.294 118.51,73.36 118.198,72.516 C117.302,70.086 110.288,67.975 100.348,67.144 C97.178,66.879 95.992,66.838 91.478,66.838 C86.425,66.838 84.476,66.928 80.467,67.343 C72.871,68.131 66.976,69.84 65.256,71.753 C64.868,72.184 64.718,72.504 64.683,72.974 C64.582,74.306 66.281,75.573 69.65,76.679 C73.807,78.044 80,78.958 87.06,79.249 C88.947,79.327 93.793,79.331 95.628,79.256 Z M172.609,86.669 C172.664,86.192 172.774,84.856 172.774,84.66 C172.775,84.486 172.758,84.476 172.466,84.476 C172.178,84.476 172.159,84.466 172.197,84.326 C172.219,84.243 172.238,84.062 172.238,83.924 L172.239,83.673 L173.385,83.673 L174.532,83.673 L174.49,83.882 C174.467,83.997 174.448,84.178 174.448,84.284 C174.448,84.467 174.433,84.476 174.152,84.476 C173.796,84.476 173.819,84.404 173.706,85.899 L173.626,86.953 L173.101,86.953 L172.576,86.953 L172.609,86.669 Z M174.476,86.769 C174.497,86.668 174.606,86.013 174.718,85.313 C174.829,84.614 174.937,83.958 174.958,83.857 L174.994,83.673 L175.584,83.673 L176.173,83.673 L176.212,83.958 C176.234,84.114 176.271,84.462 176.296,84.732 C176.32,85.001 176.362,85.197 176.388,85.167 C176.413,85.137 176.519,84.789 176.621,84.393 L176.808,83.673 L177.402,83.673 L177.996,83.673 L177.996,85.313 L177.996,86.953 L177.554,86.953 L177.112,86.953 L177.152,85.865 C177.174,85.267 177.178,84.808 177.161,84.845 C177.134,84.902 176.978,85.472 176.66,86.669 L176.585,86.953 L176.231,86.953 L175.878,86.953 L175.794,86.133 C175.693,85.142 175.64,84.734 175.616,84.759 C175.606,84.769 175.549,85.199 175.489,85.715 C175.332,87.075 175.392,86.953 174.876,86.953 L174.437,86.953 L174.476,86.769 Z" id="Shape" fill="#FFFFFF" fill-rule="nonzero"></path>
    </g>
</svg>
